# xmcd
# Track frame offsets:
# 150
# 22770
# 40997
#
# Disc length: 892 seconds
# Revision: 0
# Processed by: cddbd v1.4b42PL1 Copyright (c) Steve Scherf et al.
# Submitted via: VisiTrax 2.7.1.94 - For more info visit www.synapsa.com
#
DISCID=17037a03
DTITLE=B.B. King - Deuces Wild (Promotion CD)
DYEAR=1900
DGENRE=
TTITLE0=B.B. King with Tracy Chapman - The thrill is gone
TTITLE1=B.B. King with Bonnie Raitt - Baby I love you
TTITLE2=B.B. King with Van Morrison - If you love me
EXTD=
EXTT0=
EXTT1=
EXTT2=
PLAYORDER=
